<svg xmlns="http://www.w3.org/2000/svg" width="196" height="196" viewBox="0 0 196 196"><path d="M100.867 13.725l-43.752 12.38.637 121.36 43.975 31.95 41.168-41.653-.6-114.63-41.428-9.407z" fill="none" stroke="#000" stroke-linejoin="round"/><path d="M99.973 86.537c-.317 1.184-1.753.156-1.968-.528-.584-1.853 1.368-3.333 3.023-3.41 2.961-.137 4.996 2.77 4.85 5.52-.212 4.035-4.184 6.692-8.015 6.292-5.105-.533-8.4-5.604-7.733-10.512.84-6.175 7.025-10.115 13.008-9.174 7.246 1.14 11.835 8.446 10.615 15.504-1.437 8.317-9.868 13.556-18 12.056-9.388-1.731-15.279-11.29-13.497-20.496 2.024-10.46 12.713-17.003 22.992-14.938 11.531 2.316 18.728 14.136 16.38 25.488-2.608 12.603-15.56 20.453-27.985 17.82" fill="none" stroke="#000"/></svg>