<svg xmlns="http://www.w3.org/2000/svg" width="196" height="196" viewBox="0 0 196 196"><path d="M100.867 35.725l-43.752 12.38.637 81.36 43.975 31.95 41.168-41.653-.6-74.63z" fill="none" stroke="#000" stroke-width="2.16" stroke-linejoin="round"/><path d="M99.158 93.417c.392.328-.25.691-.546.652-.805-.104-1.022-1.104-.76-1.744.468-1.145 1.927-1.405 2.943-.867 1.49.79 1.798 2.761.974 4.142-1.1 1.84-3.599 2.196-5.34 1.08-2.191-1.403-2.596-4.438-1.188-6.538 1.706-2.543 5.278-2.997 7.737-1.295 2.897 2.006 3.399 6.12 1.402 8.936-2.306 3.25-6.961 3.801-10.134 1.508-3.605-2.605-4.204-7.802-1.616-11.332 2.904-3.96 8.645-4.607 12.53-1.723 4.315 3.203 5.011 9.487 1.83 13.73-3.5 4.669-10.328 5.414-14.927 1.936-5.024-3.799-5.818-11.17-2.044-16.126 4.097-5.379 12.014-6.221 17.325-2.15 5.734 4.394 6.625 12.855 2.258 18.522-4.693 6.09-13.699 7.03-19.722 2.365-6.445-4.99-7.433-14.54-2.472-20.92 5.288-6.8 15.384-7.836 22.119-2.579 7.155 5.586 8.24 16.227 2.686 23.317-5.884 7.51-17.07 8.645-24.516 2.793-7.866-6.18-9.049-17.911-2.9-25.714 6.479-8.22 18.754-9.452 26.913-3.007 8.576 6.777 9.856 19.597 3.114 28.111-7.074 8.932-20.44 10.261-29.31 3.221-9.287-7.371-10.665-21.282-3.328-30.508 7.669-9.642 22.125-11.069 31.707-3.435 9.998 7.967 11.473 22.968 3.541 32.905" fill="none" stroke="#000"/></svg>