<svg xmlns="http://www.w3.org/2000/svg" width="512" height="512" viewBox="0 0 512 512"><path d="M255.997 15.973L48.13 135.985v240.023l207.866 120.02 207.872-120.02V135.985z" stroke-linejoin="round" stroke-width="31.944" stroke="#fff" fill="#333"/><path d="M255.997 15.973L48.13 135.985l207.868 120.016 207.87-120.016z" fill="#333" stroke="#333" stroke-width="10.712" stroke-linejoin="round"/><path d="M256 255.998L48.13 376.012V135.985z" fill="#e9e8e7" stroke="#333" stroke-width="10.712" stroke-linejoin="round"/><path d="M463.873 135.986L256.001 255.998 48.128 376.01 256 496.03l207.872-120.02zM446.02 166.91v198.792L256 475.407 83.837 376.01l181.092-104.55z" style="line-height:normal;font-variant-ligatures:normal;font-variant-position:normal;font-variant-caps:normal;font-variant-numeric:normal;font-variant-alternates:normal;font-feature-settings:normal;text-indent:0;text-align:start;text-decoration-line:none;text-decoration-style:solid;text-decoration-color:#000;text-transform:none;text-orientation:mixed;shape-padding:0;isolation:auto;mix-blend-mode:normal" color="#000" font-weight="400" font-family="sans-serif" white-space="normal" overflow="visible" fill="#4d4d4d"/><path d="M48.13 376.012L256 255.998l207.87-120.013v240.027L256 496.026z" fill="#d4213d" stroke="#333" stroke-width="10.712" stroke-linejoin="round"/><g stroke="#000" stroke-width="10.712" stroke-linejoin="round"><path d="M230.014 271.002l207.873 120.012 25.98-15L255.998 256zM411.9 316.015l.003-150.023 25.984-15v180.022" fill="#e9e8e7"/><path d="M463.873 135.986l-25.985 15.009v180.018l-155.909-90.016-25.978 15.001L463.873 376.01l-.007-29.996zM100.092 346.009L74.113 361.01 256 466.028v-30.01z" fill="#d4213d"/><path d="M255.998 256l-25.986 15.002V451.02L74.11 361.01l-25.986 15.002 181.887 105.01L256 496.03z" fill="#e9e8e7"/><path d="M255.998 496.031v-240.03l25.983-15.003v240.028z" fill="#d4213d"/></g></svg>